<svg class="main-svg" xmlns="http://www.w3.org/2000/svg" xmlns:xlink="http://www.w3.org/1999/xlink" width="895" height="501" style="" viewBox="0 0 895 501"><rect x="0" y="0" width="895" height="501" style="fill: rgb(255, 255, 255); fill-opacity: 1;"/><defs id="defs-eceb1c"><g class="clips"><clipPath id="clipeceb1cxyplot" class="plotclip"><rect width="775" height="381"/></clipPath><clipPath class="axesclip" id="clipeceb1cx"><rect x="60" y="0" width="775" height="501"/></clipPath><clipPath class="axesclip" id="clipeceb1cy"><rect x="0" y="60" width="895" height="381"/></clipPath><clipPath class="axesclip" id="clipeceb1cxy"><rect x="60" y="60" width="775" height="381"/></clipPath></g><g class="gradients"/></defs><g class="bglayer"/><g class="layer-below"><g class="imagelayer"/><g class="shapelayer"/></g><g class="cartesianlayer"><g class="subplot xy"><g class="layer-subplot"><g class="shapelayer"/><g class="imagelayer"/></g><g class="gridlayer"><g class="x"><path class="xgrid crisp" transform="translate(209.66,0)" d="M0,60v381" style="stroke: rgb(238, 238, 238); stroke-opacity: 1; stroke-width: 1px;"/><path class="xgrid crisp" transform="translate(359.9,0)" d="M0,60v381" style="stroke: rgb(238, 238, 238); stroke-opacity: 1; stroke-width: 1px;"/><path class="xgrid crisp" transform="translate(510.13,0)" d="M0,60v381" style="stroke: rgb(238, 238, 238); stroke-opacity: 1; stroke-width: 1px;"/><path class="xgrid crisp" transform="translate(660.37,0)" d="M0,60v381" style="stroke: rgb(238, 238, 238); stroke-opacity: 1; stroke-width: 1px;"/><path class="xgrid crisp" transform="translate(810.6,0)" d="M0,60v381" style="stroke: rgb(238, 238, 238); stroke-opacity: 1; stroke-width: 1px;"/></g><g class="y"><path class="ygrid crisp" transform="translate(0,381.91)" d="M60,0h775" style="stroke: rgb(238, 238, 238); stroke-opacity: 1; stroke-width: 1px;"/><path class="ygrid crisp" transform="translate(0,343.65)" d="M60,0h775" style="stroke: rgb(238, 238, 238); stroke-opacity: 1; stroke-width: 1px;"/><path class="ygrid crisp" transform="translate(0,305.39)" d="M60,0h775" style="stroke: rgb(238, 238, 238); stroke-opacity: 1; stroke-width: 1px;"/><path class="ygrid crisp" transform="translate(0,267.13)" d="M60,0h775" style="stroke: rgb(238, 238, 238); stroke-opacity: 1; stroke-width: 1px;"/><path class="ygrid crisp" transform="translate(0,228.86)" d="M60,0h775" style="stroke: rgb(238, 238, 238); stroke-opacity: 1; stroke-width: 1px;"/><path class="ygrid crisp" transform="translate(0,190.6)" d="M60,0h775" style="stroke: rgb(238, 238, 238); stroke-opacity: 1; stroke-width: 1px;"/><path class="ygrid crisp" transform="translate(0,152.34)" d="M60,0h775" style="stroke: rgb(238, 238, 238); stroke-opacity: 1; stroke-width: 1px;"/><path class="ygrid crisp" transform="translate(0,114.08)" d="M60,0h775" style="stroke: rgb(238, 238, 238); stroke-opacity: 1; stroke-width: 1px;"/><path class="ygrid crisp" transform="translate(0,75.81)" d="M60,0h775" style="stroke: rgb(238, 238, 238); stroke-opacity: 1; stroke-width: 1px;"/></g></g><g class="zerolinelayer"><path class="yzl zl crisp" transform="translate(0,420.17)" d="M60,0h775" style="stroke: rgb(68, 68, 68); stroke-opacity: 1; stroke-width: 1px;"/></g><path class="xlines-below"/><path class="ylines-below"/><g class="overlines-below"/><g class="xaxislayer-below"/><g class="yaxislayer-below"/><g class="overaxes-below"/><g class="plot" transform="translate(60,60)" clip-path="url('#clipeceb1cxyplot')"><g class="scatterlayer mlayer"><g class="trace scatter trace350370" style="stroke-miterlimit: 2; opacity: 1;"><g class="fills"/><g class="errorbars"/><g class="lines"><path class="js-line" d="M0,360.75L1.83,361.9L2.49,361.66L4.36,361.72L5.05,361.21L8.14,358.92L9.01,358.28L11.66,356.52L12.59,356.2L16.83,354.82L17.76,354.28L19.77,352.85L20.76,351.69L23.83,348.15L24.58,345.07L29.93,322.98L30.56,318.07L33.02,298.55L33.59,291.06L36.39,257.05L36.9,250.48L40.17,222.93L40.68,214.23L46.06,155.1L46.57,148.21L47.14,149.22L47.71,146.03L48.8,140.15L49.31,133.82L53,109.22L53.57,111.92L54.14,112.61L54.66,105.47L60.06,83.12L60.57,81.72L62.62,64.77L63.19,67.78L65.35,58.13L65.89,57.63L67.03,60.65L67.55,57.22L68.09,57.53L68.63,54.73L69.71,51.57L70.22,47.39L70.76,46.22L71.33,50.3L72.41,46.41L72.95,47.62L73.52,47.15L74.04,44.34L74.58,43.18L75.12,40.21L76.17,38.73L76.71,39.94L77.79,40.89L78.33,38.39L78.9,40.86L79.44,40.27L79.98,37.11L80.53,34.97L81.07,35.76L81.61,35.57L84.25,32.51L84.82,34.77L86.44,35.71L87.02,41.26L87.53,38.7L88.07,40.55L88.61,40.33L89.15,37.05L90.23,33.37L90.8,37.2L92.45,40.08L92.97,39.99L93.51,41.1L94.08,45.27L94.62,43.31L95.16,44.61L95.7,43.59L96.24,40.57L96.78,38.47L97.35,40.77L97.86,37.32L98.4,40.55L98.94,39.26L99.49,41.11L100.6,44.73L101.14,40.82L101.71,42.63L102.25,41.73L102.79,41.03L103.36,42.2L105.07,38.03L105.67,41.59L106.25,43.12L106.82,40.19L107.93,36.01L108.47,36.16L109.01,34.2L110.63,29.1L111.2,32.31L112.29,32.07L112.86,38.91L113.4,36.88L113.94,37.81L114.51,37.64L115.08,35.76L116.25,42.38L116.79,41.78L117.33,40.22L119.5,34.41L120.04,32.18L120.61,34.58L121.15,33.82L121.69,34.32L122.23,32.14L122.8,34.84L123.88,30.71L124.42,31.5L124.97,34.68L126.62,30.17L127.19,32.43L127.76,32.45L128.3,30.42L128.87,30.84L129.44,33.79L130.01,34.09L130.55,32.91L131.12,30.82L131.7,32.01L132.3,33.94L132.84,31.03L133.38,31.56L133.98,35.26L134.55,34.53L135.09,32.57L135.66,36.09L136.23,34.87L137.37,33.06L137.92,33.27L138.46,33.3L139.03,31.7L139.6,31.62L140.14,29.76L141.85,29.97L142.42,33.51L144.62,28.39L145.16,29.31L145.76,32.15L146.33,31.74L146.87,31.5L148.52,32.03L149.09,33.59L149.63,31.24L150.2,32.07L150.81,37.06L151.38,33.63L151.95,34.8L154.74,28.71L155.28,28.87L156.42,32.43L157,32.17L157.57,31.08L158.71,35.47L159.28,32.84L160.42,38.9L160.99,38.31L161.56,38.66L162.13,36.53L162.73,38.75L163.3,38.53L163.85,37.3L164.39,36.67L165.02,39.35L165.59,41.78L166.16,38.42L167.87,36.35L168.44,36.1L169.01,38.31L169.58,35.62L171.36,39.3L171.96,37.07L173.13,39.93L173.73,38.58L174.33,38.65L174.9,40.51L176.04,35.29L176.62,36.07L177.79,33.5L178.36,33.2L178.93,33.6L179.5,32.12L180.07,31.24L180.64,34.13L181.21,33.95L181.78,30.53L182.32,30.92L182.9,29.54L183.53,39.93L184.1,38.34L184.67,36.09L188.06,30.6L188.63,32.2L189.21,30.9L189.78,32.15L191.58,34.28L192.18,31.55L193.89,29.36L194.46,30.5L197.29,26.71L197.86,29.53L200.17,26.66L200.74,26.57L201.92,25.63L202.52,27.59L204.8,23.49L205.37,25.46L205.91,24.82L206.51,29.59L207.08,29.64L207.62,28.14L209.34,28.79L209.91,26.73L210.48,28.63L211.08,33.33L212.22,32.6L212.79,30.05L213.96,35.15L214.53,34.2L215.65,31.5L216.22,33.12L219.1,27.46L219.64,26.99L220.24,27.58L220.78,26.61L221.36,24.82L221.93,25.04L222.5,23.88L224.18,24.85L224.75,24.38L225.32,25.82L225.89,24.21L227,23.93L227.58,24.69L229.89,26.33L230.46,26.68L232.14,24.38L232.71,24.18L233.31,21.96L233.92,23L234.46,23.68L235.03,23.1L235.6,22.42L236.14,23.51L236.74,26.02L237.31,24.72L238.48,24.56L239.05,25.73L239.62,26.03L240.16,24.2L240.74,22.84L241.31,24.67L241.88,26.96L242.42,26.67L242.96,25.55L243.53,27.39L244.1,26.01L244.7,27.19L245.24,26.59L246.38,23.84L246.96,23.79L248.67,21.09L249.24,21.38L250.38,25.44L250.95,25.57L251.52,26.54L252.09,24.71L253.24,22.69L253.81,24.16L254.95,28.12L255.52,26.21L256.09,24.57L256.63,26.54L257.77,25.81L258.34,24.14L258.91,22.47L259.49,24.18L260.06,25.45L260.63,24.89L261.2,23.67L262.94,24.13L263.51,22.56L264.11,23.63L264.68,23.12L265.25,22.34L265.79,22.63L266.37,22.08L267.51,20.04L268.08,21.03L269.22,19.2L269.76,20.68L271.41,19.72L271.95,19.95L272.56,21.22L273.13,20.74L273.73,20.44L274.33,21.46L274.9,20.51L275.44,20.01L276.01,21.28L277.09,20.91L277.66,23.62L278.23,22.28L278.81,22.81L279.41,24.64L279.95,24.74L280.55,23.9L281.12,26.54L281.69,24.33L282.26,24.24L282.86,27.19L284.57,25.43L285.15,27.76L286.83,23.07L287.4,21.75L289.56,21.91L290.13,25.62L290.73,28.57L291.27,26.98L291.85,28.31L292.39,26.97L292.96,26.94L293.53,27.84L295.24,24.29L295.81,24.87L296.95,22.98L297.49,23.44L298.07,24.6L298.64,23.71L299.18,23.12L299.75,23.93L300.89,25.59L301.43,24.18L302,24.45L302.57,25.68L303.11,26.49L303.68,24.96L304.26,24.2L304.83,28.41L308.19,20.71L308.73,21.46L309.87,27.97L310.44,28.02L312.7,22.53L313.27,22.55L313.84,23.37L314.44,22.9L316.15,20.73L316.69,20.85L317.24,22.84L317.81,22.55L318.35,22.1L318.92,23.14L319.49,22.17L321.17,21.74L321.74,23.05L322.85,22.72L323.42,23.93L324,22.77L324.57,23.57L325.65,22.75L326.22,23.42L326.79,22.42L327.36,25.34L327.93,27.89L328.5,26.65L329.61,27.95L330.19,26.49L331.33,25.36L331.87,24.55L332.41,23.42L332.98,24.02L335.23,20.82L335.77,20.74L337.49,19.05L338.03,19.46L339.68,19.13L340.25,20.36L340.82,22.04L341.39,21.14L341.93,23.03L342.5,22.18L343.08,22.01L343.65,23.15L344.82,22.35L345.36,22L345.93,21.59L346.5,22.99L347.07,22.91L347.64,21.76L348.18,21.33L348.75,22.95L350.44,23.13L351.01,22.02L351.58,22.2L352.15,20.68L353.26,21.24L353.83,25.28L355.52,27.44L356.06,26.79L357.2,23.93L357.8,25.3L358.97,21.68L359.51,21.6L360.62,23.67L361.19,22.74L361.76,21.76L362.31,23.82L362.88,23.53L363.45,22.02L364.59,26.17L365.13,24.94L366.84,24.31L367.41,24.1L370.27,21.82L370.84,21.78L371.41,22.46L371.98,27.78L373.66,25.57L374.26,28.65L375.98,24.67L376.55,25.84L378.2,23.2L378.77,25.75L379.34,28.03L379.88,26.27L380.99,24.41L381.54,24.49L382.11,22.59L382.68,25.22L383.79,22.78L384.39,24L384.93,24.68L385.47,23.53L386.04,24.38L386.61,23.13L387.76,22.34L388.39,27.95L388.96,25.88L389.53,26.06L390.07,24.99L391.18,24.11L391.75,27.28L393.43,24.39L394.01,27.38L395.12,24.31L395.72,28.22L397.43,24.8L398,25.13L398.6,26.96L399.17,26.03L399.74,26.51L400.32,24.72L400.89,25.12L401.43,23.84L404.25,20.11L404.85,20.33L405.96,23.82L406.47,23.7L407.59,22.58L408.13,23.26L408.67,23.36L409.21,22.66L409.78,24.35L410.41,30.2L410.95,30.25L411.55,35.7L412.09,33.09L412.66,33.49L413.27,32.18L415.49,27.94L416.06,29.94L417.2,31.68L417.74,30.41L419.97,25.05L420.54,28.83L421.11,28.97L421.71,30.38L422.88,32.82L423.45,30.54L424.02,28.45L424.59,29.15L425.16,29.01L425.7,28.49L426.28,29.29L428.62,32.96L429.19,32.63L430.93,36.08L431.53,35.3L432.07,33.3L432.68,34.63L434.36,27.61L434.93,28.68L436.1,32.54L436.67,30.33L437.81,26.63L438.41,27.35L438.99,28.26L439.56,25.93L440.73,30.85L441.27,29.13L441.84,26.91L442.41,27.25L442.98,25.9L444.12,28.75L444.69,26.77L445.87,23.92L446.44,24.92L446.98,24.79L447.55,26.71L448.69,29.23L449.26,27.43L449.83,25.9L450.43,30.02L451,30L451.61,32.16L453.32,30.03L453.92,31.89L454.49,31.55L455.09,33.96L456.23,29.69L456.8,30.46L457.4,31.37L457.98,29.72L458.55,29.82L459.12,27.53L460.83,25.23L461.43,31.58L462.54,33.43L463.11,33.31L463.71,30.22L464.31,35.37L464.89,34.74L465.46,31.92L466.03,29.59L466.6,30.41L467.17,28.84L468.88,33.16L469.45,32.21L470.62,35.4L471.23,43.77L471.8,42.75L472.37,43.62L474.71,51.92L475.34,51.52L475.91,47.73L476.51,52.05L477.08,50.39L478.8,44.17L479.4,44.24L479.97,39.8L480.57,42.43L481.71,42.35L482.28,43.91L482.88,46.1L483.45,44.7L485.17,38.61L485.74,37.8L486.31,37.19L486.88,34.54L487.45,36.76L488.02,35.67L488.59,35.75L489.19,37.12L489.79,37.81L490.37,35.43L491.48,33.21L492.05,31.74L492.62,32.23L493.19,34.8L494.3,31.52L494.87,31.99L495.44,32.84L496.01,29.99L497.19,27.58L497.79,28.17L498.33,27.22L498.9,28.25L499.47,27.45L500.01,28.56L502.35,36.68L502.93,35.92L504.07,35.22L504.64,39.04L505.78,36.29L506.38,39.54L508.21,50.95L508.78,48.26L510.53,40.85L511.1,38.64L511.67,36.3L512.24,37.05L512.84,36.19L513.41,38.63L513.98,38.14L514.55,38.45L516.24,31.7L516.81,33.72L517.41,36.15L517.98,34.51L518.58,35.38L519.15,34.52L521.37,30L521.94,31.07L522.52,31.01L523.06,29.47L525.31,25.75L525.88,26.39L526.96,26.44L527.53,28.47L528.07,28.28L528.68,28.97L529.79,26.45L530.36,28.86L532.1,33.84L532.67,31.34L533.24,29.23L533.84,34.43L534.99,33.61L535.56,36.43L536.13,34.2L536.7,36.9L537.81,35.09L538.38,36.24L538.95,35.8L539.49,34.4L540.66,38.07L541.24,35.11L541.81,33.84L542.38,36.22L542.95,37.31L543.52,36.59L544.69,36.63L545.26,40.45L546.43,41.38L547,40.49L547.54,40.45L548.12,38.78L548.69,38.98L549.26,40.82L549.86,42.75L550.43,40.89L551.03,42.62L551.6,40L552.14,41.32L552.71,39.34L554.46,35.35L555.03,38.12L556.71,37.44L557.28,38.23L558.96,33.82L559.59,38.38L562.96,31.57L563.53,31.69L564.64,30.46L565.21,31.44L565.78,33.23L566.35,31.89L566.96,34.7L567.53,33.1L569.81,27.38L570.35,27.73L570.92,30.26L571.46,29.93L572.03,30.9L572.57,31.02L573.14,29.37L573.69,28.25L574.26,30.46L574.83,28.8L575.4,31.17L575.97,29.58L576.54,32.87L578.25,35.55L578.82,33.23L579.42,31.18L580,33.06L581.14,34.59L581.71,31.94L583.96,30.18L584.53,30.02L586.25,33.16L586.82,33.55L587.96,37.15L588.53,34.92L589.1,32.67L589.7,35.62L590.27,37.77L590.87,44.33L591.44,44.16L592.01,40.86L592.59,40.45L593.13,38.58L595.35,34.22L595.92,34.16L596.49,31.68L597.06,31.96L597.63,32.79L599.35,27.9L599.92,28.64L601.06,31.66L601.63,30.06L602.77,31.32L603.34,29.67L603.88,30.3L604.42,28.83L606.11,26.26L606.65,27.63L608.3,27.71L608.87,28.86L609.47,30.06L610.04,29.34L611.15,28.07L611.73,28.97L612.84,28.41L613.41,31.41L613.98,34.68L614.55,32.44L615.69,32.1L616.23,30.24L616.77,30.77L617.31,29.83L619.57,24.53L620.11,25.59L620.65,29.31L621.19,28.03L621.76,29.18L625.58,23.79L626.15,24.88L626.69,24.25L627.29,29.21L627.83,28.94L628.4,31.34L628.97,32.07L629.51,31.3L630.65,27.52L631.2,28.16L631.77,26.66L632.37,30.06L632.94,31.13L633.51,29.52L634.62,28.99L635.16,27.42L635.73,29.26L636.3,28.46L636.84,30.14L637.42,29.38L638.56,27.35L639.13,28.88L640.27,26.9L640.81,26.42L641.89,25.87L642.43,24.97L642.97,25.66L643.54,24.92L644.66,26.87L645.2,26.41L646.82,25.02L647.39,28.07L647.93,26.73L648.5,27.67L650.19,26.27L650.73,26.9L651.27,25.83L651.84,26.87L652.44,29.5L652.98,28.94L653.55,29.64L654.09,30.39L654.66,29.53L655.23,30.05L655.77,29.12L656.86,30.29L657.4,29.21L659.05,27.37L659.62,27.54L660.73,27.38L661.3,25.74L662.41,23.6L662.99,24.15L663.53,23.93L664.07,25.08L665.15,23.71L665.72,25.24L666.29,24.21L666.83,26.15L667.94,24.55L668.48,26.69L669.6,28.69L670.14,28.92L671.28,26.34L671.85,27.58L672.39,27.69L672.96,27.01L674.58,26.87L675.15,26.88L675.73,25.95L676.3,29.45L676.84,28.56L677.38,29.17L678.46,28.64L679.03,30.67L680.14,31.48L680.68,30.37L681.82,30.05L682.37,29.34L684.02,26.06L684.56,27.17L686.27,31.66L686.84,32.37L687.41,31.29L687.98,32.48L689.1,30.59L689.67,29.88L690.21,31.02L690.81,28.59L691.92,30.5L692.49,28.49L693.06,28.22L693.6,28.88L695.32,27.67L695.86,27.93L697,29.37L697.54,28.39L698.08,27.61L698.65,29.04L699.22,31.58L699.79,29.69L700.36,28.53L700.93,29.41L702.05,27.11L702.59,28.26L704.87,37.65L705.41,36.93L705.98,37.02L706.55,35.72L707.12,37.27L708.27,36.3L708.87,38.82L709.44,38.45L710.04,36.74L711.18,39.14L711.75,36.77L712.32,37.01L712.89,39.22L714.58,41.01L715.12,37.82L716.26,38.59L716.83,41.4L718.54,36.07L719.08,39.27L719.68,45.07L720.25,41.62L721.37,41.41L721.94,43L723.65,46.51L724.22,47.48L724.76,46.66L725.36,50.03L725.9,47.59L726.47,50.66L727.08,52.76L727.65,51.68L728.22,51.61L728.79,48.64L731.1,41.5L731.67,43.3L732.27,46.25L732.84,45.62L733.42,47.13L734.56,45.81L735.13,47.57L735.76,52.87L736.33,51.45L736.93,52.35L737.56,56.62L738.13,54.77L740.36,45.21L740.93,44.27L742.07,41.58L742.64,41.42L743.21,39.35L743.81,43.46L744.98,45.07L745.55,44.18L746.7,38.53L747.27,38.84L747.87,39.01L748.41,36.83L749.55,38.37L750.12,35.4L750.69,34.89L751.29,40.06L752.98,34.03L753.55,35.1L754.12,36.65L754.66,35.29L756.85,32.21L757.42,32.72L757.99,37.42L758.56,34.68L759.14,37.42L759.71,36.05L760.28,36.75L760.85,35.69L762.53,34.44L763.07,34.06L764.72,31.96L765.29,33.19L765.87,33.5L766.44,35.54L767.01,32.98L767.58,36.45L769.29,33L769.86,35.52L770.43,33.02L771,33.73L771.57,33.28L772.12,32.13L772.72,34.28L773.32,34.95L773.89,38.21L775,35.95" style="vector-effect: non-scaling-stroke; fill: none; stroke: rgb(31, 119, 180); stroke-opacity: 1; stroke-width: 2px; opacity: 1;"/></g><g class="points"/><g class="text"/></g></g></g><g class="overplot"/><path class="xlines-above crisp" d="M0,0" style="fill: none;"/><path class="ylines-above crisp" d="M0,0" style="fill: none;"/><g class="overlines-above"/><g class="xaxislayer-above"><g class="xtick"><text text-anchor="middle" x="0" y="454" transform="translate(209.66,0)" style="font-family: 'Open Sans', verdana, arial, sans-serif; font-size: 12px; fill: rgb(68, 68, 68); fill-opacity: 1; white-space: pre;">5k</text></g><g class="xtick"><text text-anchor="middle" x="0" y="454" transform="translate(359.9,0)" style="font-family: 'Open Sans', verdana, arial, sans-serif; font-size: 12px; fill: rgb(68, 68, 68); fill-opacity: 1; white-space: pre;">10k</text></g><g class="xtick"><text text-anchor="middle" x="0" y="454" transform="translate(510.13,0)" style="font-family: 'Open Sans', verdana, arial, sans-serif; font-size: 12px; fill: rgb(68, 68, 68); fill-opacity: 1; white-space: pre;">15k</text></g><g class="xtick"><text text-anchor="middle" x="0" y="454" transform="translate(660.37,0)" style="font-family: 'Open Sans', verdana, arial, sans-serif; font-size: 12px; fill: rgb(68, 68, 68); fill-opacity: 1; white-space: pre;">20k</text></g><g class="xtick"><text text-anchor="middle" x="0" y="454" transform="translate(810.6,0)" style="font-family: 'Open Sans', verdana, arial, sans-serif; font-size: 12px; fill: rgb(68, 68, 68); fill-opacity: 1; white-space: pre;">25k</text></g></g><g class="yaxislayer-above"><g class="ytick"><text text-anchor="end" x="59" y="4.199999999999999" transform="translate(0,420.17)" style="font-family: 'Open Sans', verdana, arial, sans-serif; font-size: 12px; fill: rgb(68, 68, 68); fill-opacity: 1; white-space: pre;">0</text></g><g class="ytick"><text text-anchor="end" x="59" y="4.199999999999999" transform="translate(0,381.91)" style="font-family: 'Open Sans', verdana, arial, sans-serif; font-size: 12px; fill: rgb(68, 68, 68); fill-opacity: 1; white-space: pre;">100</text></g><g class="ytick"><text text-anchor="end" x="59" y="4.199999999999999" transform="translate(0,343.65)" style="font-family: 'Open Sans', verdana, arial, sans-serif; font-size: 12px; fill: rgb(68, 68, 68); fill-opacity: 1; white-space: pre;">200</text></g><g class="ytick"><text text-anchor="end" x="59" y="4.199999999999999" transform="translate(0,305.39)" style="font-family: 'Open Sans', verdana, arial, sans-serif; font-size: 12px; fill: rgb(68, 68, 68); fill-opacity: 1; white-space: pre;">300</text></g><g class="ytick"><text text-anchor="end" x="59" y="4.199999999999999" transform="translate(0,267.13)" style="font-family: 'Open Sans', verdana, arial, sans-serif; font-size: 12px; fill: rgb(68, 68, 68); fill-opacity: 1; white-space: pre;">400</text></g><g class="ytick"><text text-anchor="end" x="59" y="4.199999999999999" transform="translate(0,228.86)" style="font-family: 'Open Sans', verdana, arial, sans-serif; font-size: 12px; fill: rgb(68, 68, 68); fill-opacity: 1; white-space: pre;">500</text></g><g class="ytick"><text text-anchor="end" x="59" y="4.199999999999999" transform="translate(0,190.6)" style="font-family: 'Open Sans', verdana, arial, sans-serif; font-size: 12px; fill: rgb(68, 68, 68); fill-opacity: 1; white-space: pre;">600</text></g><g class="ytick"><text text-anchor="end" x="59" y="4.199999999999999" transform="translate(0,152.34)" style="font-family: 'Open Sans', verdana, arial, sans-serif; font-size: 12px; fill: rgb(68, 68, 68); fill-opacity: 1; white-space: pre;">700</text></g><g class="ytick"><text text-anchor="end" x="59" y="4.199999999999999" transform="translate(0,114.08)" style="font-family: 'Open Sans', verdana, arial, sans-serif; font-size: 12px; fill: rgb(68, 68, 68); fill-opacity: 1; white-space: pre;">800</text></g><g class="ytick"><text text-anchor="end" x="59" y="4.199999999999999" transform="translate(0,75.81)" style="font-family: 'Open Sans', verdana, arial, sans-serif; font-size: 12px; fill: rgb(68, 68, 68); fill-opacity: 1; white-space: pre;">900</text></g></g><g class="overaxes-above"/></g></g><g class="polarlayer"/><g class="ternarylayer"/><g class="geolayer"/><g class="funnelarealayer"/><g class="pielayer"/><g class="treemaplayer"/><g class="sunburstlayer"/><g class="glimages"/><defs id="topdefs-eceb1c"><g class="clips"/></defs><g class="layer-above"><g class="imagelayer"/><g class="shapelayer"/></g><g class="infolayer"><g class="g-gtitle"><text class="gtitle" x="447.5" y="30" text-anchor="middle" dy="0em" style="font-family: 'Open Sans', verdana, arial, sans-serif; font-size: 17px; fill: rgb(68, 68, 68); opacity: 1; font-weight: normal; white-space: pre;">Agent_score_gamma_0.99_lambda_0.0_advnorm_False_valnorm_False_epsilon_0.1_comment_</text></g><g class="g-xtitle"><text class="xtitle" x="447.5" y="493" text-anchor="middle" style="font-family: 'Open Sans', verdana, arial, sans-serif; font-size: 14px; fill: rgb(68, 68, 68); opacity: 1; font-weight: normal; white-space: pre;">episode</text></g><g class="g-ytitle"><text class="ytitle" transform="rotate(-90,22,250.5)" x="22" y="250.5" text-anchor="middle" style="font-family: 'Open Sans', verdana, arial, sans-serif; font-size: 14px; fill: rgb(68, 68, 68); opacity: 1; font-weight: normal; white-space: pre;">score</text></g></g></svg>