<svg class="main-svg" xmlns="http://www.w3.org/2000/svg" xmlns:xlink="http://www.w3.org/1999/xlink" width="513" height="411" style="" viewBox="0 0 513 411"><rect x="0" y="0" width="513" height="411" style="fill: rgb(255, 255, 255); fill-opacity: 1;"/><defs id="defs-51ec3f"><g class="clips"><clipPath id="clip51ec3fxyplot" class="plotclip"><rect width="393" height="291"/></clipPath><clipPath class="axesclip" id="clip51ec3fx"><rect x="60" y="0" width="393" height="411"/></clipPath><clipPath class="axesclip" id="clip51ec3fy"><rect x="0" y="60" width="513" height="291"/></clipPath><clipPath class="axesclip" id="clip51ec3fxy"><rect x="60" y="60" width="393" height="291"/></clipPath></g><g class="gradients"/></defs><g class="bglayer"/><g class="layer-below"><g class="imagelayer"/><g class="shapelayer"/></g><g class="cartesianlayer"><g class="subplot xy"><g class="layer-subplot"><g class="shapelayer"/><g class="imagelayer"/></g><g class="gridlayer"><g class="x"><path class="xgrid crisp" transform="translate(150.55,0)" d="M0,60v291" style="stroke: rgb(238, 238, 238); stroke-opacity: 1; stroke-width: 1px;"/><path class="xgrid crisp" transform="translate(241.11,0)" d="M0,60v291" style="stroke: rgb(238, 238, 238); stroke-opacity: 1; stroke-width: 1px;"/><path class="xgrid crisp" transform="translate(331.66,0)" d="M0,60v291" style="stroke: rgb(238, 238, 238); stroke-opacity: 1; stroke-width: 1px;"/><path class="xgrid crisp" transform="translate(422.21,0)" d="M0,60v291" style="stroke: rgb(238, 238, 238); stroke-opacity: 1; stroke-width: 1px;"/></g><g class="y"><path class="ygrid crisp" transform="translate(0,263.89)" d="M60,0h393" style="stroke: rgb(238, 238, 238); stroke-opacity: 1; stroke-width: 1px;"/><path class="ygrid crisp" transform="translate(0,201.64)" d="M60,0h393" style="stroke: rgb(238, 238, 238); stroke-opacity: 1; stroke-width: 1px;"/><path class="ygrid crisp" transform="translate(0,139.38)" d="M60,0h393" style="stroke: rgb(238, 238, 238); stroke-opacity: 1; stroke-width: 1px;"/><path class="ygrid crisp" transform="translate(0,77.12)" d="M60,0h393" style="stroke: rgb(238, 238, 238); stroke-opacity: 1; stroke-width: 1px;"/></g></g><g class="zerolinelayer"><path class="xzl zl crisp" transform="translate(60,0)" d="M0,60v291" style="stroke: rgb(68, 68, 68); stroke-opacity: 1; stroke-width: 1px;"/><path class="yzl zl crisp" transform="translate(0,326.15)" d="M60,0h393" style="stroke: rgb(68, 68, 68); stroke-opacity: 1; stroke-width: 1px;"/></g><path class="xlines-below"/><path class="ylines-below"/><g class="overlines-below"/><g class="xaxislayer-below"/><g class="yaxislayer-below"/><g class="overaxes-below"/><g class="plot" transform="translate(60,60)" clip-path="url('#clip51ec3fxyplot')"><g class="scatterlayer mlayer"><g class="trace scatter trace3258fe" style="stroke-miterlimit: 2; opacity: 1;"><g class="fills"/><g class="errorbars"/><g class="lines"><path class="js-line" d="M0,266.19L4.98,273.24L5.43,273.55L8.6,274.6L9.06,274.96L11.32,275.99L11.77,275.58L13.58,275.83L14.04,275.78L16.75,276.13L17.21,276.15L18.56,275.66L19.02,275.78L20.83,274.82L21.28,274.27L25.81,266.65L26.26,265.06L27.62,261.75L28.07,259.84L30.34,253.24L30.79,253.33L31.24,252.2L31.69,252.48L32.15,252.17L33.05,252.19L33.5,251.28L35.77,247.88L36.22,247.56L38.03,243.83L38.49,243.47L40.75,238.87L41.2,238.1L42.56,235.35L43.01,235.01L44.37,233.22L44.82,233.64L47.99,228.32L48.45,228.58L48.9,228.81L49.35,228.06L52.07,224.37L52.52,223.15L52.97,222.84L53.43,220.73L55.69,215.36L56.14,213.87L60.22,204.14L60.67,202.97L66.56,179.19L67.01,175.88L70.18,155.55L70.63,153.61L71.54,148.3L71.99,144.42L72.44,143.73L72.9,138.5L75.16,123.78L75.61,122.49L77.42,115.6L77.88,117.99L79.69,108.16L80.14,109.32L82.86,96.84L83.31,92.61L86.48,70.84L86.93,71.63L87.38,70.27L87.84,65.93L88.74,65.48L89.19,62.81L90.55,67.23L91.01,64.25L93.27,58.32L93.72,54.33L95.08,48.76L95.53,50.79L95.99,51.98L96.44,47.89L97.34,44.25L97.8,44.59L98.25,44.75L98.7,46.13L99.16,44.04L100.06,44.51L100.51,46.96L100.97,46.26L101.42,42.31L102.32,42.98L102.78,43.82L103.23,42.16L103.68,44.49L104.14,44.83L104.59,43.77L105.04,43.02L105.49,40.44L106.85,38.83L107.31,34.98L107.76,34.22L108.21,35.72L109.12,33.59L109.57,36.79L110.47,32.14L110.93,32.84L112.74,29.38L113.19,30.14L114.55,29.53L115,27.92L115.91,26.02L116.36,26.49L116.81,29.92L117.27,28.53L117.72,27.06L118.17,25.82L118.62,27.19L119.08,27.53L119.53,29.71L120.89,37.32L121.34,36.52L121.79,35.28L122.25,35.85L122.7,36.72L123.6,34.96L124.06,33.47L126.77,24.41L127.23,23.56L128.13,19.71L128.59,20.17L130.85,14.55L131.3,16.05L132.21,17.81L132.66,23.54L133.11,23.24L133.57,24.65L134.47,25.09L134.92,23.95L135.83,27.51L136.28,25.91L136.74,25.88L137.19,27.03L137.64,27.83L138.09,25.81L138.55,24.97L139,26.95L141.72,31.05L142.17,28.97L143.07,30.49L143.53,28.03L143.98,27.12L144.43,29.45L145.34,33.83L145.79,40.44L146.24,40.01L146.7,43.75L148.05,55.73L148.51,54.79L148.96,55.6L149.41,52.88L149.87,50.69L150.32,52.42L150.77,51.75L151.22,53.51L151.68,52.95L152.13,54.51L153.03,51.89L153.49,52L154.39,46.14L154.85,46.33L155.3,45.36L155.75,46.45L156.2,45.5L157.56,51.63L158.01,49L159.37,43.52L159.83,46.92L162.09,39.07L162.54,39.57L163,38.09L163.45,38.44L163.9,37.94L164.81,37L165.26,35.84L166.16,37.61L166.62,36.07L167.52,34.24L167.98,34.48L168.43,34.89L169.79,36.64L170.24,37.03L172.96,53.72L173.41,52.94L175.22,59.2L175.67,59.2L176.13,62.14L176.58,60.37L177.03,61.5L177.48,57.57L177.94,57.91L178.39,56.88L180.65,50.27L181.11,47.94L182.92,41.71L183.37,39.92L184.28,42.53L184.73,40L186.99,36.07L187.44,35.9L187.9,35.57L188.35,36.73L190.16,36.76L190.61,38.28L191.52,36.45L191.97,37.19L192.88,37.44L193.33,39.83L195.14,46.85L195.59,46.25L196.5,43.55L196.95,44.35L197.41,48.2L199.22,43.16L199.67,43.51L200.12,45.07L200.57,43.16L201.03,46.85L201.93,46.54L202.39,46.15L202.84,46.04L203.29,47.7L205.1,40.03L205.56,39.49L207.37,43.87L207.82,43.17L208.27,44.19L208.72,48.11L209.18,47.98L209.63,46.06L212.8,64.31L213.25,62.11L215.06,51.05L215.52,49.3L216.87,44.79L217.33,46.74L219.59,40.67L220.04,41.87L220.5,42.01L220.95,39.74L222.31,38.59L222.76,38.99L223.21,39.37L223.67,49.12L225.02,55.36L225.48,54.21L226.84,49.02L227.29,49.17L228.65,54.77L229.1,55.31L229.55,50.22L230,50.42L230.46,49.39L230.91,48.77L231.36,54.2L233.17,70.38L233.63,69.32L234.53,67.04L234.99,62.61L237.25,47.2L237.7,47.05L238.61,47.66L239.06,46.7L240.87,39.94L241.32,41.03L241.78,40.79L242.23,37.7L243.13,34.23L243.59,35.89L244.04,34.03L244.49,37.17L245.85,44.72L246.3,43.75L246.76,42.8L247.21,42.91L247.66,42.16L248.12,43.16L248.57,42.21L249.02,42.37L249.47,48.28L249.93,47.5L250.38,50.21L251.74,58.64L252.19,58.85L254.45,80.56L254.91,78.2L255.36,78.18L255.81,76.03L256.26,72.52L256.72,73.07L257.17,74.02L257.62,76.11L258.08,73.14L258.53,73.34L258.98,72.14L261.25,61.16L261.7,62.14L262.15,63.38L262.6,62.58L263.06,59.46L264.41,56.29L264.87,58.27L265.32,61.3L265.77,60.37L266.23,57.16L267.58,49.95L268.04,54.2L268.49,54.55L268.94,53.94L269.4,53.49L269.85,50.53L270.3,54.15L270.75,53.4L271.21,53.62L271.66,53.82L272.11,55.92L273.02,56.27L273.47,56.67L273.92,57.42L274.38,56.29L274.83,57.84L275.28,54.88L276.64,49.16L277.09,53.23L278.9,69.18L279.36,67.3L280.71,63.4L281.17,64.52L282.98,54.69L283.43,54L285.24,47.86L285.69,49.22L286.15,49.55L286.6,52.32L287.05,51.85L287.51,52.96L288.86,57.23L289.32,55.92L289.77,53.83L290.22,54.36L290.68,56.58L292.03,54.52L292.49,56.33L293.39,55.05L293.84,52.26L296.56,44.66L297.01,45.95L297.47,46.17L297.92,50.64L298.37,49.29L298.82,50.23L299.28,51.23L300.64,57.36L301.09,55.65L301.54,56.16L301.99,58.43L302.45,57.81L302.9,59.93L303.35,61.15L303.81,65.39L304.26,64.69L304.71,60.51L306.97,49.41L307.43,47.63L308.33,45.31L308.79,45.73L309.69,46.13L310.14,48.75L310.6,52.85L311.05,52.79L311.5,53.4L311.96,54.32L312.41,53.9L312.86,52.73L313.31,53.07L313.77,50.4L314.67,52.4L315.12,51.91L315.58,51.12L316.03,50.96L316.48,48.15L316.94,47.76L317.39,46.25L318.29,43.13L318.75,43.65L319.2,41.6L319.65,41.77L320.1,53.16L322.37,79.03L322.82,78.87L323.73,71.37L324.18,71.49L324.63,71.35L325.09,67.46L325.54,67.99L325.99,67.06L326.9,65.48L327.35,62.29L327.8,61.71L328.25,58.55L330.52,53L330.97,54.9L331.42,53.78L331.88,54.3L332.33,54.85L332.78,55.61L333.24,52.09L334.14,51.32L334.59,52.29L335.5,49.38L335.95,47.03L336.4,49.55L336.86,48.7L337.31,49.76L337.76,51.06L338.22,49.95L338.67,49.57L339.12,47.02L339.57,48.45L340.03,44.97L340.93,41.72L341.38,43.5L342.29,45.11L342.74,44.13L344.1,37.23L344.55,37.38L345.01,39.58L345.46,42.07L345.91,41.98L346.37,41.45L348.18,36.96L348.63,37.66L349.53,38.03L349.99,35.83L350.89,35.02L351.35,33.71L351.8,31.37L352.25,31.99L352.7,31.46L354.51,34.63L354.97,34.35L355.42,34L355.87,31.76L356.78,33.3L357.23,31.55L358.59,29.86L359.04,31.16L359.5,30.77L359.95,28.72L361.31,24.48L361.76,22.64L362.21,21.45L362.66,21.66L363.12,23.42L363.57,21.27L364.02,23.87L364.93,22.36L365.38,23.01L365.83,23.38L366.29,23.23L366.74,24.54L367.19,24.43L367.65,28.19L369.46,42.41L369.91,50.51L371.72,67.26L372.17,65.5L372.63,64.58L373.08,60.9L374.44,56.19L374.89,54.14L375.34,53.45L375.79,49.89L376.25,51.35L376.7,50.03L377.15,50.12L377.61,48.64L378.06,48.97L378.51,48.33L378.96,49.61L379.42,47.79L380.78,43.64L381.23,44.26L383.04,39.5L383.49,40.57L383.94,47.46L384.4,46.68L384.85,45.38L385.3,44.44L385.76,47.43L388.47,55.71L388.93,58.15L389.83,61.68L390.28,60.04L391.19,57.89L391.64,58.12L392.09,58.7L393,52.68" style="vector-effect: non-scaling-stroke; fill: none; stroke: rgb(31, 119, 180); stroke-opacity: 1; stroke-width: 2px; opacity: 1;"/></g><g class="points"/><g class="text"/></g></g></g><g class="overplot"/><path class="xlines-above crisp" d="M0,0" style="fill: none;"/><path class="ylines-above crisp" d="M0,0" style="fill: none;"/><g class="overlines-above"/><g class="xaxislayer-above"><g class="xtick"><text text-anchor="middle" x="0" y="364" transform="translate(60,0)" style="font-family: 'Open Sans', verdana, arial, sans-serif; font-size: 12px; fill: rgb(68, 68, 68); fill-opacity: 1; white-space: pre;">0</text></g><g class="xtick"><text text-anchor="middle" x="0" y="364" transform="translate(150.55,0)" style="font-family: 'Open Sans', verdana, arial, sans-serif; font-size: 12px; fill: rgb(68, 68, 68); fill-opacity: 1; white-space: pre;">2000</text></g><g class="xtick"><text text-anchor="middle" x="0" y="364" transform="translate(241.11,0)" style="font-family: 'Open Sans', verdana, arial, sans-serif; font-size: 12px; fill: rgb(68, 68, 68); fill-opacity: 1; white-space: pre;">4000</text></g><g class="xtick"><text text-anchor="middle" x="0" y="364" transform="translate(331.66,0)" style="font-family: 'Open Sans', verdana, arial, sans-serif; font-size: 12px; fill: rgb(68, 68, 68); fill-opacity: 1; white-space: pre;">6000</text></g><g class="xtick"><text text-anchor="middle" x="0" y="364" transform="translate(422.21,0)" style="font-family: 'Open Sans', verdana, arial, sans-serif; font-size: 12px; fill: rgb(68, 68, 68); fill-opacity: 1; white-space: pre;">8000</text></g></g><g class="yaxislayer-above"><g class="ytick"><text text-anchor="end" x="59" y="4.199999999999999" transform="translate(0,326.15)" style="font-family: 'Open Sans', verdana, arial, sans-serif; font-size: 12px; fill: rgb(68, 68, 68); fill-opacity: 1; white-space: pre;">0</text></g><g class="ytick"><text text-anchor="end" x="59" y="4.199999999999999" transform="translate(0,263.89)" style="font-family: 'Open Sans', verdana, arial, sans-serif; font-size: 12px; fill: rgb(68, 68, 68); fill-opacity: 1; white-space: pre;">200</text></g><g class="ytick"><text text-anchor="end" x="59" y="4.199999999999999" transform="translate(0,201.64)" style="font-family: 'Open Sans', verdana, arial, sans-serif; font-size: 12px; fill: rgb(68, 68, 68); fill-opacity: 1; white-space: pre;">400</text></g><g class="ytick"><text text-anchor="end" x="59" y="4.199999999999999" transform="translate(0,139.38)" style="font-family: 'Open Sans', verdana, arial, sans-serif; font-size: 12px; fill: rgb(68, 68, 68); fill-opacity: 1; white-space: pre;">600</text></g><g class="ytick"><text text-anchor="end" x="59" y="4.199999999999999" transform="translate(0,77.12)" style="font-family: 'Open Sans', verdana, arial, sans-serif; font-size: 12px; fill: rgb(68, 68, 68); fill-opacity: 1; white-space: pre;">800</text></g></g><g class="overaxes-above"/></g></g><g class="polarlayer"/><g class="ternarylayer"/><g class="geolayer"/><g class="funnelarealayer"/><g class="pielayer"/><g class="treemaplayer"/><g class="sunburstlayer"/><g class="glimages"/><defs id="topdefs-51ec3f"><g class="clips"/></defs><g class="layer-above"><g class="imagelayer"/><g class="shapelayer"/></g><g class="infolayer"><g class="g-gtitle"><text class="gtitle" x="256.5" y="30" text-anchor="middle" dy="0em" style="font-family: 'Open Sans', verdana, arial, sans-serif; font-size: 17px; fill: rgb(68, 68, 68); opacity: 1; font-weight: normal; white-space: pre;">Agent_score</text></g><g class="g-xtitle"><text class="xtitle" x="256.5" y="403" text-anchor="middle" style="font-family: 'Open Sans', verdana, arial, sans-serif; font-size: 14px; fill: rgb(68, 68, 68); opacity: 1; font-weight: normal; white-space: pre;">episode</text></g><g class="g-ytitle"><text class="ytitle" transform="rotate(-90,22,205.5)" x="22" y="205.5" text-anchor="middle" style="font-family: 'Open Sans', verdana, arial, sans-serif; font-size: 14px; fill: rgb(68, 68, 68); opacity: 1; font-weight: normal; white-space: pre;">score</text></g></g></svg>