<svg class="main-svg" xmlns="http://www.w3.org/2000/svg" xmlns:xlink="http://www.w3.org/1999/xlink" width="372" height="336" style="" viewBox="0 0 372 336"><rect x="0" y="0" width="372" height="336" style="fill: rgb(255, 255, 255); fill-opacity: 1;"/><defs id="defs-a02a58"><g class="clips"><clipPath id="clipa02a58xyplot" class="plotclip"><rect width="252" height="216"/></clipPath><clipPath class="axesclip" id="clipa02a58x"><rect x="60" y="0" width="252" height="336"/></clipPath><clipPath class="axesclip" id="clipa02a58y"><rect x="0" y="60" width="372" height="216"/></clipPath><clipPath class="axesclip" id="clipa02a58xy"><rect x="60" y="60" width="252" height="216"/></clipPath></g><g class="gradients"/></defs><g class="bglayer"/><g class="layer-below"><g class="imagelayer"/><g class="shapelayer"/></g><g class="cartesianlayer"><g class="subplot xy"><g class="layer-subplot"><g class="shapelayer"/><g class="imagelayer"/></g><g class="gridlayer"><g class="x"><path class="xgrid crisp" transform="translate(120,0)" d="M0,60v216" style="stroke: rgb(238, 238, 238); stroke-opacity: 1; stroke-width: 1px;"/><path class="xgrid crisp" transform="translate(180,0)" d="M0,60v216" style="stroke: rgb(238, 238, 238); stroke-opacity: 1; stroke-width: 1px;"/><path class="xgrid crisp" transform="translate(240,0)" d="M0,60v216" style="stroke: rgb(238, 238, 238); stroke-opacity: 1; stroke-width: 1px;"/><path class="xgrid crisp" transform="translate(300,0)" d="M0,60v216" style="stroke: rgb(238, 238, 238); stroke-opacity: 1; stroke-width: 1px;"/></g><g class="y"><path class="ygrid crisp" transform="translate(0,179.49)" d="M60,0h252" style="stroke: rgb(238, 238, 238); stroke-opacity: 1; stroke-width: 1px;"/><path class="ygrid crisp" transform="translate(0,127.86)" d="M60,0h252" style="stroke: rgb(238, 238, 238); stroke-opacity: 1; stroke-width: 1px;"/><path class="ygrid crisp" transform="translate(0,76.22)" d="M60,0h252" style="stroke: rgb(238, 238, 238); stroke-opacity: 1; stroke-width: 1px;"/></g></g><g class="zerolinelayer"><path class="xzl zl crisp" transform="translate(60,0)" d="M0,60v216" style="stroke: rgb(68, 68, 68); stroke-opacity: 1; stroke-width: 1px;"/><path class="yzl zl crisp" transform="translate(0,231.13)" d="M60,0h252" style="stroke: rgb(68, 68, 68); stroke-opacity: 1; stroke-width: 1px;"/></g><path class="xlines-below"/><path class="ylines-below"/><g class="overlines-below"/><g class="xaxislayer-below"/><g class="yaxislayer-below"/><g class="overaxes-below"/><g class="plot" transform="translate(60,60)" clip-path="url('#clipa02a58xyplot')"><g class="scatterlayer mlayer"><g class="trace scatter trace00a16c" style="stroke-miterlimit: 2; opacity: 1;"><g class="fills"/><g class="errorbars"/><g class="lines"><path class="js-line" d="M0,171.16L4.2,178.32L4.5,178.33L5.7,179.85L6,180.17L7.5,181.14L7.8,180.93L10.2,181.56L10.5,181.18L12,177.65L12.3,175.95L13.5,166.2L13.8,163.92L15.6,148.71L15.9,148.03L18,133.19L18.3,131.86L19.5,120.84L19.8,123.17L23.1,96.86L23.4,96.49L24,90.32L24.3,85.28L29.1,46.99L29.4,44.91L30.6,41.93L30.9,41.29L31.2,41.73L31.5,41.31L31.8,41.04L32.4,41.17L32.7,40.17L33.9,40.36L34.2,39.73L37.8,34.67L38.1,35.03L38.4,34.9L39.3,34.68L39.6,35.16L40.5,35.15L40.8,36.19L41.4,37.37L41.7,36.33L43.2,35.15L43.5,35.51L44.1,35.54L44.4,34.5L45,33.99L45.3,33.15L45.9,31.39L46.2,31.63L46.5,31.56L46.8,31.45L47.1,30.18L48.6,28.51L48.9,28.32L49.2,29.41L49.5,28.92L49.8,28.76L50.7,28.43L51,29.29L51.6,28.19L51.9,29.9L53.4,27.01L53.7,27.59L54.9,29.54L55.2,28.48L56.1,27.78L56.4,27.19L56.7,27.74L57,27.12L57.3,26.49L58.8,28.26L59.1,27.48L59.4,29.85L60,29.75L60.3,29.48L60.6,29.71L60.9,29.05L61.2,29.18L62.7,28.41L63,28.43L65.4,25.22L65.7,25.5L66.9,26.61L67.2,25.51L68.1,25.86L68.4,25.53L69,25.9L69.3,25.37L69.6,25.61L69.9,24.6L70.8,25.68L71.1,25.9L71.4,24.96L71.7,25.87L72,25.57L72.6,25.29L72.9,24.43L73.8,23.44L74.1,22.05L74.4,22.56L74.7,22.3L75,22.06L78.6,14.41L78.9,14.49L80.1,15.61L80.4,15.6L81,13.9L81.3,14.35L81.6,14.95L83.4,12.89L83.7,14.82L86.7,18.36L87,17.98L87.3,17.5L87.6,18.42L87.9,18.67L88.5,19.63L88.8,18.7L89.1,18.24L89.4,19.17L90.3,17.16L90.6,17.32L90.9,18.31L92.4,15.05L92.7,16.82L95.4,12.59L95.7,14.58L97.8,10.8L98.1,11.41L98.4,12.8L99.3,23.17L99.6,38.57L102,127.85L102.3,135L104.1,158.71L104.4,161.54L106.5,175.45L106.8,176.27L108.3,177.22L108.6,177.17L109.8,179.18L110.1,181.21L112.8,195.19L113.1,196.1L115.8,201.44L116.1,201.78L118.8,203.82L119.1,203.95L123.3,204.83L123.6,204.85L138.6,205.17L138.9,205.16L149.4,204.85L149.7,204.22L150.3,203.58L150.6,200.44L153,189.26L153.3,188.35L156.9,181.25L157.2,180.88L158.7,180.16L159,180.86L159.6,183.38L159.9,182.55L160.2,183.23L160.8,183.2L161.1,182.74L162.3,182.19L162.6,182.89L166.5,197.82L166.8,197.67L168.6,195.21L168.9,195.73L169.8,194.95L170.1,195.34L171,195.62L171.3,196.5L172.2,198.19L172.5,197.67L172.8,197.22L175.8,199.92L176.1,198.27L178.8,186.77L179.1,186.18L181.8,181.33L182.1,180.99L184.2,180.04L184.5,180.22L186.9,179.45L187.2,180.88L187.8,180.64L188.1,180.29L188.7,180.97L189,182.21L191.4,188.95L191.7,189.47L194.4,192.41L194.7,192.59L196.2,193.09L196.5,192.57L198.3,187.32L198.6,186.51L200.7,183.36L201,184.21L202.2,185.14L202.5,184.14L204.3,181.68L204.6,181.59L207.6,180.35L207.9,180.46L210.3,179.49L210.6,180.79L213,188.64L213.3,189.22L215.7,192.09L216,192.32L220.5,194.42L220.8,194.5L225.9,195.14L226.2,195.16L239.4,195.17L239.7,194.55L240.3,192.82L240.6,193.01L240.9,193.23L244.2,194.44L244.5,194.49L250.2,194.92L250.5,194.92L252,194.89" style="vector-effect: non-scaling-stroke; fill: none; stroke: rgb(31, 119, 180); stroke-opacity: 1; stroke-width: 2px; opacity: 1;"/></g><g class="points"/><g class="text"/></g></g></g><g class="overplot"/><path class="xlines-above crisp" d="M0,0" style="fill: none;"/><path class="ylines-above crisp" d="M0,0" style="fill: none;"/><g class="overlines-above"/><g class="xaxislayer-above"><g class="xtick"><text text-anchor="middle" x="0" y="289" transform="translate(60,0)" style="font-family: 'Open Sans', verdana, arial, sans-serif; font-size: 12px; fill: rgb(68, 68, 68); fill-opacity: 1; white-space: pre;">0</text></g><g class="xtick"><text text-anchor="middle" x="0" y="289" transform="translate(120,0)" style="font-family: 'Open Sans', verdana, arial, sans-serif; font-size: 12px; fill: rgb(68, 68, 68); fill-opacity: 1; white-space: pre;">2000</text></g><g class="xtick"><text text-anchor="middle" x="0" y="289" transform="translate(180,0)" style="font-family: 'Open Sans', verdana, arial, sans-serif; font-size: 12px; fill: rgb(68, 68, 68); fill-opacity: 1; white-space: pre;">4000</text></g><g class="xtick"><text text-anchor="middle" x="0" y="289" transform="translate(240,0)" style="font-family: 'Open Sans', verdana, arial, sans-serif; font-size: 12px; fill: rgb(68, 68, 68); fill-opacity: 1; white-space: pre;">6000</text></g><g class="xtick"><text text-anchor="middle" x="0" y="289" transform="translate(300,0)" style="font-family: 'Open Sans', verdana, arial, sans-serif; font-size: 12px; fill: rgb(68, 68, 68); fill-opacity: 1; white-space: pre;">8000</text></g></g><g class="yaxislayer-above"><g class="ytick"><text text-anchor="end" x="59" y="4.199999999999999" transform="translate(0,231.13)" style="font-family: 'Open Sans', verdana, arial, sans-serif; font-size: 12px; fill: rgb(68, 68, 68); fill-opacity: 1; white-space: pre;">0</text></g><g class="ytick"><text text-anchor="end" x="59" y="4.199999999999999" transform="translate(0,179.49)" style="font-family: 'Open Sans', verdana, arial, sans-serif; font-size: 12px; fill: rgb(68, 68, 68); fill-opacity: 1; white-space: pre;">200</text></g><g class="ytick"><text text-anchor="end" x="59" y="4.199999999999999" transform="translate(0,127.86)" style="font-family: 'Open Sans', verdana, arial, sans-serif; font-size: 12px; fill: rgb(68, 68, 68); fill-opacity: 1; white-space: pre;">400</text></g><g class="ytick"><text text-anchor="end" x="59" y="4.199999999999999" transform="translate(0,76.22)" style="font-family: 'Open Sans', verdana, arial, sans-serif; font-size: 12px; fill: rgb(68, 68, 68); fill-opacity: 1; white-space: pre;">600</text></g></g><g class="overaxes-above"/></g></g><g class="polarlayer"/><g class="ternarylayer"/><g class="geolayer"/><g class="funnelarealayer"/><g class="pielayer"/><g class="treemaplayer"/><g class="sunburstlayer"/><g class="glimages"/><defs id="topdefs-a02a58"><g class="clips"/></defs><g class="layer-above"><g class="imagelayer"/><g class="shapelayer"/></g><g class="infolayer"><g class="g-gtitle"><text class="gtitle" x="186" y="30" text-anchor="middle" dy="0em" style="font-family: 'Open Sans', verdana, arial, sans-serif; font-size: 17px; fill: rgb(68, 68, 68); opacity: 1; font-weight: normal; white-space: pre;">Agent_score</text></g><g class="g-xtitle"><text class="xtitle" x="186" y="328" text-anchor="middle" style="font-family: 'Open Sans', verdana, arial, sans-serif; font-size: 14px; fill: rgb(68, 68, 68); opacity: 1; font-weight: normal; white-space: pre;">episode</text></g><g class="g-ytitle"><text class="ytitle" transform="rotate(-90,22,168)" x="22" y="168" text-anchor="middle" style="font-family: 'Open Sans', verdana, arial, sans-serif; font-size: 14px; fill: rgb(68, 68, 68); opacity: 1; font-weight: normal; white-space: pre;">score</text></g></g></svg>