<svg class="main-svg" xmlns="http://www.w3.org/2000/svg" xmlns:xlink="http://www.w3.org/1999/xlink" width="436" height="411" style="" viewBox="0 0 436 411"><rect x="0" y="0" width="436" height="411" style="fill: rgb(255, 255, 255); fill-opacity: 1;"/><defs id="defs-7c758b"><g class="clips"><clipPath id="clip7c758bxyplot" class="plotclip"><rect width="316" height="291"/></clipPath><clipPath class="axesclip" id="clip7c758bx"><rect x="60" y="0" width="316" height="411"/></clipPath><clipPath class="axesclip" id="clip7c758by"><rect x="0" y="60" width="436" height="291"/></clipPath><clipPath class="axesclip" id="clip7c758bxy"><rect x="60" y="60" width="316" height="291"/></clipPath></g><g class="gradients"/></defs><g class="bglayer"/><g class="layer-below"><g class="imagelayer"/><g class="shapelayer"/></g><g class="cartesianlayer"><g class="subplot xy"><g class="layer-subplot"><g class="shapelayer"/><g class="imagelayer"/></g><g class="gridlayer"><g class="x"><path class="xgrid crisp" transform="translate(182.48000000000002,0)" d="M0,60v291" style="stroke: rgb(238, 238, 238); stroke-opacity: 1; stroke-width: 1px;"/><path class="xgrid crisp" transform="translate(304.96000000000004,0)" d="M0,60v291" style="stroke: rgb(238, 238, 238); stroke-opacity: 1; stroke-width: 1px;"/></g><g class="y"><path class="ygrid crisp" transform="translate(0,273.71000000000004)" d="M60,0h316" style="stroke: rgb(238, 238, 238); stroke-opacity: 1; stroke-width: 1px;"/><path class="ygrid crisp" transform="translate(0,230.09)" d="M60,0h316" style="stroke: rgb(238, 238, 238); stroke-opacity: 1; stroke-width: 1px;"/><path class="ygrid crisp" transform="translate(0,186.47)" d="M60,0h316" style="stroke: rgb(238, 238, 238); stroke-opacity: 1; stroke-width: 1px;"/><path class="ygrid crisp" transform="translate(0,142.84)" d="M60,0h316" style="stroke: rgb(238, 238, 238); stroke-opacity: 1; stroke-width: 1px;"/><path class="ygrid crisp" transform="translate(0,99.22)" d="M60,0h316" style="stroke: rgb(238, 238, 238); stroke-opacity: 1; stroke-width: 1px;"/></g></g><g class="zerolinelayer"><path class="xzl zl crisp" transform="translate(60,0)" d="M0,60v291" style="stroke: rgb(68, 68, 68); stroke-opacity: 1; stroke-width: 1px;"/><path class="yzl zl crisp" transform="translate(0,317.33)" d="M60,0h316" style="stroke: rgb(68, 68, 68); stroke-opacity: 1; stroke-width: 1px;"/></g><path class="xlines-below"/><path class="ylines-below"/><g class="overlines-below"/><g class="xaxislayer-below"/><g class="yaxislayer-below"/><g class="overaxes-below"/><g class="plot" transform="translate(60,60)" clip-path="url('#clip7c758bxyplot')"><g class="scatterlayer mlayer"><g class="trace scatter trace453d92" style="stroke-miterlimit: 2; opacity: 1;"><g class="fills"/><g class="errorbars"/><g class="lines"><path class="js-line" d="M0,257.39L8.57,264.58L9.8,265.16L18.37,268.58L19.6,268.83L23.27,269.75L24.5,270.48L34.29,275.08L35.52,274.72L39.19,276.45L40.42,276.19L45.32,275.39L46.54,274.7L52.67,272.62L53.89,273.23L55.12,272.15L56.34,272.27L57.57,272.01L58.79,270.81L60.02,269.5L61.24,269.69L64.91,267.51L66.14,265.76L67.36,265.26L68.59,263.27L73.49,260.29L74.71,258.79L75.94,258.98L77.16,256.52L78.39,255L79.61,255.18L80.84,254.6L82.06,252.76L85.74,251.52L86.96,250.56L89.41,247.85L90.64,244.83L94.31,235.95L95.53,234.24L96.76,234.03L97.98,232.56L100.43,231.72L101.66,229.45L104.11,227.75L105.33,227.1L109.01,222.06L110.23,221.4L111.46,221.34L112.68,219.96L116.36,216.94L117.58,216.24L120.03,214.16L121.26,211.28L124.93,208.77L126.16,206.59L128.6,202.36L129.83,199.81L138.4,179.18L139.63,175.48L142.08,167.08L143.3,166.87L144.53,165.64L145.75,162.61L146.98,159.27L148.2,158.28L149.43,157.5L150.65,155.13L151.88,149.54L153.1,148.75L159.22,136.18L160.45,133.79L162.9,128.24L164.12,125.58L170.25,115.93L171.47,118.05L173.92,114.46L175.15,109.92L177.6,109.94L178.82,111.29L181.27,118.32L182.5,118.29L187.4,109.97L188.62,107.93L189.84,108.17L191.07,111.69L193.52,104.04L194.74,108.08L195.97,111.1L197.19,108.99L199.64,108.22L200.87,109.85L202.09,111.65L203.32,115.16L204.54,117.41L205.77,115.84L208.22,112.97L209.44,113.2L211.89,103.52L213.12,101.97L214.34,99.5L215.57,94.21L216.79,90.91L218.02,84.84L221.69,77.54L222.91,75.75L225.36,67.89L226.59,63.69L229.04,65.05L230.26,64.48L231.49,63.58L232.71,60.05L233.94,58.78L235.16,55.06L236.39,56.07L237.61,51.62L240.06,47.49L241.29,50.9L242.51,59.37L243.74,61.37L244.96,61.79L246.19,56.48L249.86,66L251.09,62.38L254.76,54.56L255.98,54.97L257.21,54.63L258.43,50.7L259.66,49.45L260.88,46.64L263.33,39.51L264.56,39.12L267.01,32.38L268.23,32.41L269.46,30.54L270.68,30.91L273.13,29.14L274.36,25.39L276.81,22.82L278.03,21.97L280.48,18.69L281.71,18.9L282.93,18.96L284.16,20.48L286.6,16.43L287.83,14.81L290.28,16.2L291.5,14.55L293.95,20.73L295.18,39.48L302.53,160.34L303.75,175.25L308.65,221.44L309.88,230.38L314.78,258.31L316,263.72" style="vector-effect: non-scaling-stroke; fill: none; stroke: rgb(31, 119, 180); stroke-opacity: 1; stroke-width: 2px; opacity: 1;"/></g><g class="points"/><g class="text"/></g></g></g><g class="overplot"/><path class="xlines-above crisp" d="M0,0" style="fill: none;"/><path class="ylines-above crisp" d="M0,0" style="fill: none;"/><g class="overlines-above"/><g class="xaxislayer-above"><g class="xtick"><text text-anchor="middle" x="0" y="364" transform="translate(60,0)" style="font-family: 'Open Sans', verdana, arial, sans-serif; font-size: 12px; fill: rgb(68, 68, 68); fill-opacity: 1; white-space: pre;">0</text></g><g class="xtick"><text text-anchor="middle" x="0" y="364" transform="translate(182.48000000000002,0)" style="font-family: 'Open Sans', verdana, arial, sans-serif; font-size: 12px; fill: rgb(68, 68, 68); fill-opacity: 1; white-space: pre;">1000</text></g><g class="xtick"><text text-anchor="middle" x="0" y="364" transform="translate(304.96000000000004,0)" style="font-family: 'Open Sans', verdana, arial, sans-serif; font-size: 12px; fill: rgb(68, 68, 68); fill-opacity: 1; white-space: pre;">2000</text></g></g><g class="yaxislayer-above"><g class="ytick"><text text-anchor="end" x="59" y="4.199999999999999" transform="translate(0,317.33)" style="font-family: 'Open Sans', verdana, arial, sans-serif; font-size: 12px; fill: rgb(68, 68, 68); fill-opacity: 1; white-space: pre;">0</text></g><g class="ytick"><text text-anchor="end" x="59" y="4.199999999999999" transform="translate(0,273.71000000000004)" style="font-family: 'Open Sans', verdana, arial, sans-serif; font-size: 12px; fill: rgb(68, 68, 68); fill-opacity: 1; white-space: pre;">100</text></g><g class="ytick"><text text-anchor="end" x="59" y="4.199999999999999" transform="translate(0,230.09)" style="font-family: 'Open Sans', verdana, arial, sans-serif; font-size: 12px; fill: rgb(68, 68, 68); fill-opacity: 1; white-space: pre;">200</text></g><g class="ytick"><text text-anchor="end" x="59" y="4.199999999999999" transform="translate(0,186.47)" style="font-family: 'Open Sans', verdana, arial, sans-serif; font-size: 12px; fill: rgb(68, 68, 68); fill-opacity: 1; white-space: pre;">300</text></g><g class="ytick"><text text-anchor="end" x="59" y="4.199999999999999" transform="translate(0,142.84)" style="font-family: 'Open Sans', verdana, arial, sans-serif; font-size: 12px; fill: rgb(68, 68, 68); fill-opacity: 1; white-space: pre;">400</text></g><g class="ytick"><text text-anchor="end" x="59" y="4.199999999999999" transform="translate(0,99.22)" style="font-family: 'Open Sans', verdana, arial, sans-serif; font-size: 12px; fill: rgb(68, 68, 68); fill-opacity: 1; white-space: pre;">500</text></g></g><g class="overaxes-above"/></g></g><g class="polarlayer"/><g class="ternarylayer"/><g class="geolayer"/><g class="funnelarealayer"/><g class="pielayer"/><g class="treemaplayer"/><g class="sunburstlayer"/><g class="glimages"/><defs id="topdefs-7c758b"><g class="clips"/></defs><g class="layer-above"><g class="imagelayer"/><g class="shapelayer"/></g><g class="infolayer"><g class="g-gtitle"><text class="gtitle" x="218" y="30" text-anchor="middle" dy="0em" style="font-family: 'Open Sans', verdana, arial, sans-serif; font-size: 17px; fill: rgb(68, 68, 68); opacity: 1; font-weight: normal; white-space: pre;">Agent_score</text></g><g class="g-xtitle"><text class="xtitle" x="218" y="403" text-anchor="middle" style="font-family: 'Open Sans', verdana, arial, sans-serif; font-size: 14px; fill: rgb(68, 68, 68); opacity: 1; font-weight: normal; white-space: pre;">episode</text></g><g class="g-ytitle"><text class="ytitle" transform="rotate(-90,22,205.5)" x="22" y="205.5" text-anchor="middle" style="font-family: 'Open Sans', verdana, arial, sans-serif; font-size: 14px; fill: rgb(68, 68, 68); opacity: 1; font-weight: normal; white-space: pre;">score</text></g></g></svg>